<svg width="20" height="132" viewBox="0 0 20 132" fill="none" xmlns="http://www.w3.org/2000/svg">
<g id="social">
<g id="Group">
<path id="Vector" d="M20 39.9241C19.2641 40.2504 18.4733 40.471 17.6433 40.5702C18.4905 40.0623 19.1411 39.2582 19.4475 38.3001C18.6547 38.7703 17.7765 39.1117 16.8419 39.2958C16.0933 38.4983 15.027 38 13.8468 38C11.5807 38 9.74344 39.8372 9.74344 42.1031C9.74344 42.4247 9.7798 42.7379 9.84974 43.0382C6.43952 42.8671 3.41607 41.2335 1.3923 38.7511C1.0391 39.3571 0.836753 40.062 0.836753 40.8139C0.836753 42.2375 1.56121 43.4934 2.6622 44.2292C1.98954 44.2079 1.35689 44.0233 0.803614 43.716C0.803321 43.7331 0.803321 43.7503 0.803321 43.7676C0.803321 45.7557 2.21771 47.4141 4.09481 47.791C3.75047 47.8848 3.38798 47.9349 3.01372 47.9349C2.74933 47.9349 2.49226 47.9092 2.24178 47.8613C2.76389 49.4915 4.27923 50.6778 6.07476 50.7109C4.67047 51.8114 2.9012 52.4674 0.978821 52.4674C0.647646 52.4674 0.321007 52.448 0 52.4101C1.81587 53.5743 3.97271 54.2536 6.28992 54.2536C13.8372 54.2536 17.9644 48.0012 17.9644 42.579C17.9644 42.401 17.9604 42.2241 17.9525 42.0481C18.7542 41.4696 19.4499 40.7469 20 39.9241Z" fill="#55ACEE"/>
</g>
<g id="Group_2">
<path id="Vector_2" d="M10.0001 73.9355C4.47791 73.9355 0 78.4126 0 83.9356C0 88.3539 2.86533 92.1024 6.83867 93.4247C7.33844 93.5172 7.52192 93.2077 7.52192 92.9436C7.52192 92.7052 7.51265 91.9174 7.50834 91.0818C4.72631 91.6867 4.13927 89.9019 4.13927 89.9019C3.68437 88.7461 3.02894 88.4387 3.02894 88.4387C2.12163 87.8181 3.09733 87.8308 3.09733 87.8308C4.10151 87.9014 4.63026 88.8613 4.63026 88.8613C5.52217 90.3901 6.96965 89.9481 7.5403 89.6926C7.63006 89.0463 7.88922 88.6051 8.1752 88.3554C5.95405 88.1026 3.61913 87.2451 3.61913 83.4133C3.61913 82.3216 4.00977 81.4295 4.64947 80.7292C4.54564 80.4773 4.20335 79.4602 4.74635 78.0828C4.74635 78.0828 5.58609 77.814 7.49708 79.1078C8.29476 78.8862 9.15024 78.7751 10.0001 78.7713C10.8499 78.7751 11.7061 78.8862 12.5052 79.1078C14.4139 77.814 15.2525 78.0828 15.2525 78.0828C15.7968 79.4602 15.4544 80.4773 15.3505 80.7292C15.9917 81.4295 16.3797 82.3216 16.3797 83.4133C16.3797 87.2542 14.0403 88.0999 11.8135 88.3475C12.1722 88.6578 12.4918 89.2664 12.4918 90.1993C12.4918 91.5374 12.4802 92.6142 12.4802 92.9436C12.4802 93.2097 12.6602 93.5216 13.1671 93.4234C17.1383 92.0996 20 88.3524 20 83.9356C20 78.4126 15.5227 73.9355 10.0001 73.9355ZM3.74536 88.1809C3.72333 88.2306 3.64517 88.2455 3.57396 88.2113C3.50143 88.1787 3.46069 88.111 3.48421 88.0611C3.50574 88.01 3.58406 87.9957 3.65643 88.03C3.72913 88.0626 3.77053 88.131 3.74536 88.1809ZM4.23725 88.6198C4.18956 88.664 4.09633 88.6435 4.03307 88.5736C3.96766 88.5039 3.9554 88.4106 4.00376 88.3658C4.05294 88.3215 4.14336 88.3422 4.20893 88.412C4.27434 88.4825 4.28709 88.5751 4.23725 88.6198ZM4.57471 89.1814C4.51344 89.2239 4.41325 89.184 4.35132 89.0951C4.29004 89.0062 4.29004 88.8995 4.35264 88.8568C4.41474 88.8141 4.51344 88.8525 4.5762 88.9407C4.6373 89.0312 4.6373 89.1378 4.57471 89.1814ZM5.14542 89.8317C5.09061 89.8922 4.97386 89.8759 4.88841 89.7935C4.80098 89.7128 4.77663 89.5984 4.83161 89.538C4.88709 89.4774 5.0045 89.4944 5.09061 89.5762C5.17738 89.6567 5.20387 89.772 5.14542 89.8317ZM5.88301 90.0513C5.85883 90.1296 5.74639 90.1652 5.63312 90.1319C5.52002 90.0977 5.446 90.0059 5.46885 89.9268C5.49237 89.8479 5.6053 89.8108 5.7194 89.8464C5.83234 89.8806 5.90652 89.9716 5.88301 90.0513ZM6.72242 90.1444C6.72523 90.2269 6.62919 90.2953 6.51029 90.2968C6.39073 90.2994 6.29402 90.2327 6.29269 90.1515C6.29269 90.0682 6.38659 90.0005 6.50615 89.9985C6.62505 89.9962 6.72242 90.0625 6.72242 90.1444ZM7.54704 90.1128C7.56128 90.1933 7.47865 90.2759 7.36058 90.298C7.2445 90.3191 7.13702 90.2695 7.12229 90.1897C7.10788 90.1072 7.192 90.0246 7.30792 90.0032C7.42616 89.9827 7.53197 90.031 7.54704 90.1128Z" fill="#161614"/>
</g>
<g id="Group_3">
<path id="Vector_3" d="M10.0004 112.6C15.1566 112.6 19.3285 116.771 19.3285 121.92C19.3285 127.068 15.1566 131.248 10.0004 131.248C4.84412 131.248 0.672241 127.076 0.672241 121.928C0.672241 116.779 4.84412 112.6 10.0004 112.6Z" fill="#E74D89"/>
<path id="Vector_4" d="M10 131.912C4.48438 131.912 0 127.436 0 121.928C0 116.412 4.48438 111.936 10 111.936C15.5156 111.936 20 116.412 20 121.92C20 127.428 15.5156 131.912 10 131.912ZM18.4297 123.287C18.1406 123.193 15.7891 122.498 13.1094 122.92C14.2266 125.982 14.6797 128.482 14.7656 128.998C16.6875 127.709 18.0547 125.662 18.4297 123.287ZM13.3359 129.787C13.2109 129.037 12.7109 126.428 11.5156 123.318C11.5 123.326 11.4766 123.334 11.4609 123.334C6.64062 125.014 4.91406 128.35 4.75781 128.662C6.20312 129.787 8.02344 130.459 10 130.459C11.1797 130.467 12.3125 130.225 13.3359 129.787ZM3.65625 127.639C3.85156 127.311 6.19531 123.436 10.6016 122.006C10.7109 121.967 10.8281 121.936 10.9375 121.904C10.7266 121.42 10.4922 120.936 10.2422 120.459C5.97656 121.732 1.83594 121.678 1.46094 121.67C1.46094 121.756 1.45312 121.842 1.45312 121.928C1.46094 124.123 2.28906 126.123 3.65625 127.639ZM1.64062 120.186C2.02344 120.193 5.53906 120.209 9.53906 119.146C8.125 116.631 6.59375 114.521 6.375 114.217C3.97656 115.342 2.19531 117.545 1.64062 120.186ZM8 113.639C8.23438 113.951 9.78906 116.061 11.1875 118.631C14.2266 117.49 15.5078 115.771 15.6641 115.553C14.1562 114.217 12.1719 113.404 10 113.404C9.3125 113.404 8.64062 113.49 8 113.639ZM16.6094 116.537C16.4297 116.779 15 118.615 11.8438 119.904C12.0391 120.311 12.2344 120.725 12.4141 121.139C12.4766 121.287 12.5391 121.436 12.6016 121.576C15.4453 121.217 18.2656 121.795 18.5469 121.85C18.5234 119.842 17.8047 117.99 16.6094 116.537Z" fill="#B2215A"/>
</g>
<g id="Group_4">
<path id="Vector_5" d="M10 20C15.5228 20 20 15.5228 20 10C20 4.47715 15.5228 0 10 0C4.47715 0 0 4.47715 0 10C0 15.5228 4.47715 20 10 20Z" fill="#3B5998"/>
<path id="Vector_6" d="M12.5136 10.3909H10.7293V16.928H8.02578V10.3909H6.73999V8.09349H8.02578V6.60681C8.02578 5.54367 8.53078 3.87891 10.7533 3.87891L12.7559 3.88728V6.11731H11.3029C11.0646 6.11731 10.7294 6.23639 10.7294 6.74354V8.09563H12.7498L12.5136 10.3909Z" fill="white"/>
</g>
</g>
</svg>
